<?xml version="1.0" standalone="no"?>
<!DOCTYPE svg PUBLIC "-//W3C//DTD SVG 20010904//EN"
 "http://www.w3.org/TR/2001/REC-SVG-20010904/DTD/svg10.dtd">
<svg version="1.0" xmlns="http://www.w3.org/2000/svg"
 width="700.000000pt" height="700.000000pt" viewBox="0 0 700.000000 700.000000"
 preserveAspectRatio="xMidYMid meet">
<metadata>
Created by potrace 1.14, written by Peter Selinger 2001-2017
</metadata>
<g transform="translate(0.000000,700.000000) scale(0.100000,-0.100000)"
fill="#000000" stroke="none">
<path d="M3878 6614 c-2 -1 -52 -5 -113 -8 -349 -19 -796 -114 -1070 -227 -16
-7 -32 -13 -35 -13 -12 -3 -166 -69 -175 -75 -5 -4 -26 -14 -45 -21 -59 -23
-296 -157 -414 -234 -308 -202 -627 -505 -843 -801 -211 -289 -398 -679 -479
-1000 -4 -16 -8 -34 -10 -40 -22 -74 -50 -219 -69 -365 -13 -99 -15 -523 -2
-575 2 -11 8 -47 12 -80 4 -32 8 -67 10 -76 2 -9 6 -33 9 -53 3 -19 11 -57 17
-83 6 -27 12 -57 15 -68 11 -59 69 -247 104 -342 55 -145 65 -168 137 -313
305 -615 770 -1072 1434 -1412 377 -193 703 -301 1009 -332 317 -33 920 -24
1330 19 14 2 54 6 90 10 59 6 199 27 275 41 81 15 134 29 298 81 l177 57 0 35
c-1 231 10 1396 14 1426 3 22 8 67 11 100 7 79 23 125 42 125 42 0 259 -152
388 -272 16 -15 33 -24 37 -20 17 17 145 441 173 571 2 9 29 117 60 241 31
124 59 233 61 243 6 27 10 43 50 202 20 83 38 159 39 170 2 11 8 40 15 65 7
25 13 52 15 60 2 8 20 89 40 180 42 187 38 168 66 315 31 159 33 150 -26 150
-59 0 -108 -6 -275 -35 -69 -11 -141 -23 -160 -26 -28 -4 -157 -29 -315 -60
-11 -2 -69 -13 -130 -24 -60 -12 -132 -26 -160 -32 -27 -6 -59 -12 -70 -14
-35 -5 -368 -75 -375 -79 -3 -2 -23 -6 -45 -9 -31 -5 -311 -68 -447 -101 -199
-47 -304 -92 -314 -132 -8 -32 39 -91 230 -288 l156 -159 -28 -31 c-15 -16
-73 -79 -127 -139 -135 -148 -189 -201 -355 -350 -82 -74 -337 -276 -402 -319
-136 -90 -220 -82 -369 34 -183 143 -780 722 -862 836 -68 96 -88 168 -82 302
2 58 6 115 8 126 3 11 8 42 12 70 19 135 109 347 209 493 150 221 382 420 644
551 76 38 258 104 321 116 68 13 213 35 271 41 78 9 430 8 495 0 25 -3 66 -9
93 -12 201 -24 469 -119 609 -215 23 -16 46 -29 52 -29 6 0 11 -4 11 -10 0 -5
4 -10 9 -10 6 0 74 -42 153 -93 79 -52 164 -106 189 -121 55 -32 53 -36 59
104 8 165 5 1250 -3 1372 -9 146 -31 265 -53 289 -29 32 -366 122 -644 172
-14 3 -63 12 -110 21 -47 8 -98 18 -115 21 -16 3 -61 10 -100 15 -38 6 -77 12
-85 15 -8 2 -40 6 -71 10 -31 3 -67 8 -80 11 -24 5 -386 13 -391 8z m2472
-2509 c5 -13 7 -45 5 -73 -3 -44 -8 -75 -30 -194 -67 -359 -338 -1343 -380
-1378 -12 -10 -24 -7 -60 14 -39 23 -163 122 -190 152 -26 28 -122 102 -141
108 -22 7 -43 -9 -204 -154 -183 -165 -171 -154 -361 -331 -144 -135 -243
-227 -299 -279 -19 -18 -62 -57 -95 -89 -68 -63 -243 -224 -350 -321 -38 -35
-72 -66 -75 -70 -3 -3 -45 -41 -95 -85 -49 -44 -106 -94 -125 -111 -190 -169
-283 -246 -325 -266 -71 -35 -150 6 -375 196 -52 45 -97 83 -100 86 -3 3 -25
23 -50 44 -25 22 -83 74 -130 116 -47 42 -132 119 -190 171 -216 195 -408 349
-435 349 -10 0 -40 -19 -69 -42 -47 -39 -72 -62 -162 -144 -143 -132 -203
-186 -229 -205 -16 -13 -32 -26 -35 -29 -11 -14 -77 -48 -103 -54 -39 -9 -96
23 -150 86 -137 161 -314 418 -352 511 l-16 39 113 112 c233 231 617 566 829
726 102 76 165 110 205 110 24 0 62 -15 74 -29 3 -3 59 -51 125 -106 66 -55
152 -127 190 -160 39 -33 95 -80 125 -105 30 -25 70 -59 90 -76 19 -17 85 -71
145 -121 243 -198 389 -293 450 -293 27 0 118 62 200 135 17 15 47 41 68 58
21 18 53 46 71 62 17 17 67 62 111 100 43 39 105 95 138 125 32 30 68 62 79
72 156 135 598 570 598 588 0 23 -92 126 -313 353 -27 27 -47 51 -45 53 4 3
112 27 175 39 16 2 82 16 148 30 142 31 258 54 300 61 17 3 46 9 65 14 31 8
445 94 510 106 14 2 72 14 129 25 57 12 116 23 130 25 14 3 34 7 43 10 10 3
30 7 45 10 16 3 35 7 43 9 8 3 33 7 55 11 22 3 42 7 45 9 3 2 23 6 45 9 22 4
54 10 70 15 38 10 54 4 65 -24z"/>
</g>
</svg>
