<?xml version="1.0" standalone="no"?>
<!DOCTYPE svg PUBLIC "-//W3C//DTD SVG 20010904//EN"
 "http://www.w3.org/TR/2001/REC-SVG-20010904/DTD/svg10.dtd">
<svg version="1.0" xmlns="http://www.w3.org/2000/svg"
 width="748.000000pt" height="748.000000pt" viewBox="0 0 748.000000 748.000000"
 preserveAspectRatio="xMidYMid meet">
<metadata>
Created by potrace 1.14, written by Peter Selinger 2001-2017
</metadata>
<g transform="translate(0.000000,748.000000) scale(0.100000,-0.100000)"
fill="#000000" stroke="none">
<path d="M550 4697 c-3 -3 -23 -7 -46 -10 -22 -3 -67 -16 -100 -28 -250 -94
-411 -319 -400 -559 10 -204 95 -348 273 -464 111 -72 204 -99 347 -101 162
-2 305 28 307 64 0 9 3 81 5 160 2 79 6 146 8 148 3 3 23 -10 45 -28 23 -18
43 -30 44 -28 3 3 57 214 82 319 2 8 9 30 14 49 6 19 8 37 6 40 -5 4 -94 -9
-160 -23 -11 -2 -75 -16 -143 -29 -154 -31 -165 -39 -112 -81 21 -17 39 -36
39 -42 1 -20 -175 -183 -198 -184 -14 0 -44 24 -155 127 -68 63 -69 64 -67
114 3 160 152 281 337 274 88 -4 163 -31 218 -79 16 -15 33 -26 38 -26 4 0 8
74 8 165 0 181 1 177 -66 189 -16 3 -45 10 -64 16 -38 11 -252 26 -260 17z"/>
<path d="M1490 4646 c0 -5 -57 -165 -145 -406 -37 -102 -76 -207 -85 -235 -10
-27 -53 -143 -94 -258 -42 -114 -76 -209 -76 -212 0 -2 59 -3 132 -2 l131 2
39 115 c22 63 43 119 48 124 7 7 188 11 315 7 29 -1 31 -5 63 -98 18 -54 38
-110 43 -124 l11 -27 129 -1 c145 -1 141 -4 110 75 -33 84 -83 218 -86 234 -2
8 -31 89 -65 180 -34 91 -66 176 -70 190 -5 14 -23 63 -40 110 -17 47 -42 114
-55 150 -12 36 -33 91 -45 123 l-21 57 -120 0 c-65 0 -119 -2 -119 -4z m250
-682 c0 -1 -59 -2 -131 -2 -116 0 -130 2 -124 17 4 9 29 83 56 165 28 82 55
160 61 175 9 23 17 7 74 -164 35 -104 64 -191 64 -191z"/>
<path d="M2243 4360 c-1 -242 1 -290 13 -291 79 -3 236 0 242 5 3 4 5 32 4 62
-1 29 0 54 2 54 1 0 41 -55 87 -123 l83 -123 131 0 c78 0 134 4 141 10 6 6 28
36 49 66 118 168 136 190 153 182 9 -5 33 -5 52 -2 19 3 47 3 63 -1 15 -4 27
-5 27 -1 0 4 20 6 45 4 25 -2 45 0 46 4 3 30 4 421 1 432 -3 9 -41 12 -142 12
l-137 0 -145 -292 -144 -291 -112 226 c-62 124 -112 230 -112 236 0 5 -3 11
-7 13 -5 2 -19 27 -32 56 l-24 52 -142 0 -141 0 -1 -290z"/>
<path d="M3599 4643 c-1 -10 -1 -1050 0 -1085 l1 -28 390 1 390 0 1 27 c3 93
1 193 -4 198 -3 3 -121 6 -261 5 l-256 -1 -1 30 c-1 39 -1 153 0 183 l1 22
208 -1 c114 0 212 2 219 4 8 2 11 36 11 107 l-1 104 -206 0 c-113 0 -213 0
-221 0 -12 1 -15 18 -13 102 1 56 4 104 7 106 3 3 117 6 253 7 l248 1 3 113 3
112 -386 0 c-212 0 -385 -3 -386 -7z"/>
<path d="M4534 4091 l0 -561 41 -1 c143 -3 513 1 547 6 214 32 403 204 459
417 21 78 20 225 -1 288 -60 180 -180 310 -353 382 -49 20 -72 22 -372 26
l-321 4 0 -561z m581 309 c90 -29 161 -90 205 -176 21 -41 25 -63 25 -134 0
-101 -21 -156 -85 -224 -79 -84 -150 -105 -338 -103 l-137 2 -1 320 c-1 176 0
323 2 326 7 11 289 2 329 -11z"/>
<path d="M5943 4588 c-12 -35 -65 -182 -118 -328 -114 -308 -148 -402 -204
-560 -22 -63 -45 -122 -50 -131 -19 -33 2 -39 127 -38 141 0 123 -13 172 134
19 55 37 104 41 109 6 6 257 12 336 7 6 -1 19 -25 28 -53 9 -29 20 -62 25 -73
5 -11 14 -38 21 -60 19 -65 19 -65 160 -65 l128 0 -33 93 c-19 50 -52 142 -74
202 -22 61 -61 169 -87 240 -26 72 -67 184 -91 250 -24 66 -61 167 -82 225
l-39 105 -120 3 -120 3 -20 -63z m206 -432 c34 -101 61 -186 61 -189 0 -3 -57
-5 -127 -4 -78 1 -127 6 -126 12 5 30 123 365 128 365 2 0 31 -83 64 -184z"/>
<path d="M6485 4545 c85 -158 118 -220 176 -330 28 -55 75 -140 103 -190 l51
-90 3 -202 3 -203 130 0 129 0 0 192 0 191 44 81 c24 45 67 126 96 181 29 55
56 105 60 110 4 6 31 55 60 110 82 156 112 209 121 219 5 6 9 16 9 23 0 11
-29 13 -140 11 l-140 -3 -76 -160 c-41 -88 -94 -199 -116 -247 -23 -49 -44
-88 -47 -88 -3 0 -28 49 -56 108 -27 59 -80 171 -117 250 l-68 142 -141 0
-140 0 56 -105z"/>
<path d="M3126 4111 c-1 -3 -2 -134 -2 -291 l1 -285 124 -3 c70 -1 127 1 130
7 5 7 7 547 2 572 -1 8 -251 8 -255 0z"/>
<path d="M2243 3760 l0 -229 129 0 128 0 1 92 c0 100 0 334 -1 355 0 9 -33 12
-129 12 l-129 0 1 -230z"/>
<path d="M2693 3869 c-18 -7 -20 -17 -19 -171 l1 -163 128 -3 127 -3 1 48 c0
26 1 103 2 170 l2 123 -90 1 c-49 0 -100 2 -111 3 -12 1 -30 -1 -41 -5z"/>
<path d="M4723 3084 l-1 -304 1184 0 1184 0 0 304 0 305 -1183 0 -1184 0 0
-305z m411 146 l36 -25 -23 -23 c-23 -22 -23 -22 -61 -4 -59 29 -127 15 -156
-31 -55 -89 19 -193 124 -173 36 7 36 7 36 59 l0 53 35 1 c29 0 35 -3 36 -21
4 -74 3 -103 -3 -117 -17 -39 -152 -58 -218 -31 -57 23 -105 90 -108 154 -3
40 18 101 46 132 53 60 186 73 256 26z m403 -85 c1 -61 2 -110 3 -110 1 0 3
-8 5 -18 9 -45 84 -62 126 -28 21 17 23 26 23 142 l1 123 35 1 c19 1 37 -2 40
-6 10 -15 3 -220 -9 -257 -19 -58 -68 -86 -147 -86 -115 -1 -154 52 -155 210
-1 153 -4 140 39 139 l37 0 2 -110z m776 94 c34 -16 65 -65 65 -104 0 -30 -25
-95 -37 -95 -3 0 -12 -4 -20 -9 -11 -7 -8 -17 16 -52 16 -24 32 -50 37 -56 5
-10 -4 -13 -33 -13 -37 0 -44 4 -75 48 -30 41 -40 48 -70 49 -38 1 -40 -1 -38
-64 2 -32 0 -33 -38 -33 -31 0 -40 4 -41 18 -1 21 -1 278 0 309 1 21 4 21 104
18 56 -1 114 -9 130 -16z m423 8 c4 -4 9 -56 10 -115 2 -130 0 -118 24 -142
30 -30 83 -27 109 6 19 24 21 40 21 143 l0 117 38 -1 37 0 3 -110 c2 -61 -2
-127 -8 -147 -24 -83 -139 -121 -230 -76 -60 30 -73 66 -75 208 -1 63 0 118 1
121 5 9 61 5 70 -4z"/>
<path d="M6155 3130 l0 -60 53 0 c39 0 57 5 72 20 47 47 9 100 -72 100 l-53 0
0 -60z"/>
</g>
</svg>
